PathFileType	4	(X/Y/Z)	RBDS09\RBDS09runT45.trc
DataRate	CameraRate	NumFrames	NumMarkers	Units	OrigDataRate	OrigDataStartFrame	OrigNumFrames
150.000000	150.000000	4	33	mm	150.000000	1687	4500
Frame#	Time	L.ASIS			L.Heel.Bottom			L.Heel.Lateral			L.Heel.Top			L.Iliac.Crest			L.MT1			L.MT5			L.PSIS			L.Shank.Bottom.Lateral			L.Shank.Bottom.Medial			L.Shank.Top.Lateral			L.Shank.Top.Medial			L.Thigh.Bottom.Lateral			L.Thigh.Bottom.Medial			L.Thigh.Top.Lateral			L.Thigh.Top.Medial			R.ASIS			R.ASY			R.Heel.Bottom			R.Heel.Lateral			R.Heel.Top			R.Iliac.Crest			R.MT1			R.MT5			R.PSIS			R.Shank.Bottom.Lateral			R.Shank.Bottom.Medial			R.Shank.Top.Lateral			R.Shank.Top.Medial			R.Thigh.Bottom.Lateral			R.Thigh.Bottom.Medial			R.Thigh.Top.Lateral			R.Thigh.Top.Medial			
		X1	Y1	Z1	X2	Y2	Z2	X3	Y3	Z3	X4	Y4	Z4	X5	Y5	Z5	X6	Y6	Z6	X7	Y7	Z7	X8	Y8	Z8	X9	Y9	Z9	X10	Y10	Z10	X11	Y11	Z11	X12	Y12	Z12	X13	Y13	Z13	X14	Y14	Z14	X15	Y15	Z15	X16	Y16	Z16	X17	Y17	Z17	X18	Y18	Z18	X19	Y19	Z19	X20	Y20	Z20	X21	Y21	Z21	X22	Y22	Z22	X23	Y23	Z23	X24	Y24	Z24	X25	Y25	Z25	X26	Y26	Z26	X27	Y27	Z27	X28	Y28	Z28	X29	Y29	Z29	X30	Y30	Z30	X31	Y31	Z31	X32	Y32	Z32	X33	Y33	Z33	

1688	11.24666666666667	2304.672009817521	943.3638289584884	910.4072813929918	2215.462299494996	31.87314401067175	1012.81809465932	2242.148080295687	53.04375421018899	967.2213785550141	2229.004694616905	80.25754196924194	1015.561622345889	2221.241851313262	988.4972483979348	887.473149084909	2436.126409250728	35.47831055289055	1011.67085351495	2378.06199845736	38.97062128016676	914.4890628142606	2158.106882882006	952.4246106197143	1017.678453259483	2290.200242327851	169.1952676140814	935.3343311674771	2259.255506742149	178.9625088745406	978.1793323542487	2292.587174770422	247.402510032886	917.4094244038949	2264.177037467396	258.3655917027738	961.9632139455981	2307.910771794443	577.262705660455	885.6393901977075	2269.485570377012	558.0229146719099	945.3300815006917	2251.318398541466	672.1857470710054	881.3323138785297	2217.120706824183	655.401571492874	939.4466304776846	2341.251863874366	904.8671013605089	1140.381327420397	1857.767250622727	415.336367062205	1134.461977571362	1851.713737658716	590.5852810829905	1078.163230413301	1858.142877477103	563.5972069393512	1134.276157853987	1892.983328711769	566.3463316767167	1084.914792270451	2306.302282874799	969.8014922078703	1188.457806087664	1803.599883445388	382.7421753781132	1091.148209986204	1796.915584025902	440.9922402116572	1186.616442293613	2172.90267697594	941.5386836194247	1092.111978988658	1974.11172885188	530.6105408600509	1144.208400063857	1976.823150782683	540.1296419771887	1093.300784505269	2059.264387114014	527.2796188479128	1145.249480646044	2058.257853364143	539.670850442174	1093.378686508063	2271.548007515455	505.528711857431	1177.374531861168	2221.47965011374	506.8654556518489	1128.316612741208	2250.065275918826	613.0672485794847	1189.263286469999	2199.051992175871	607.7185128963802	1144.096334754887	
1689	11.25333333333333	2303.502721922278	941.3808641402228	909.8936221863073	2184.562952953786	32.72358477582112	1012.49177947406	2211.442443846551	54.00323445767223	967.0229077653127	2198.623641929297	80.98471510787982	1015.574905735855	2219.222769222632	984.2389552433684	887.0533000819311	2405.397129911114	34.81422866675823	1010.98643909079	2347.085168806928	39.15205529861394	913.9638238668839	2156.325180520266	950.5771036637657	1018.130734061622	2265.990513297797	169.2919789762194	934.9969752010647	2234.582302116322	180.7964952305977	977.1171224726709	2272.465171614944	247.4260620563597	916.6051777396378	2244.033185541226	260.0274197304028	960.7128228204721	2301.430411521585	574.6325721936058	884.8836253478339	2262.745254540683	556.0628805147808	944.624802953177	2246.554023978996	670.5282202621905	880.7209897946877	2212.023249059785	654.3573369377435	938.8398100359201	2338.691331517065	902.157913187635	1140.327428346449	1879.051363145878	410.6861533032971	1133.676856624348	1868.907419288999	586.8047492117828	1082.396477039758	1876.186304481993	558.4155778624751	1137.637570811187	1910.888899138219	563.2502241497083	1088.620336663469	2303.948017040851	966.0366823337444	1188.677188091315	1825.73626888874	378.2123207086968	1089.217550663821	1817.902014885173	433.3249661054606	1186.356609282235	2170.297592339794	939.1668746415281	1092.5210329518	1993.962038959944	527.2523681845178	1146.365869206506	1996.644423484459	537.3643341203643	1095.618861745735	2079.20668998496	524.1045654485052	1147.536022845046	2078.110012191726	536.8514219337083	1095.793231948941	2287.762312815363	504.4153821574422	1179.291998806133	2237.465744224304	503.7120118380639	1131.538644543741	2260.334911790973	610.4241838734155	1191.269471902597	2208.780471274572	601.6183899722132	1147.460957429568	
1690	11.26	2302.665110785115	939.6468338217967	909.5180624676117	2153.834144522723	33.63903608512731	1012.170641158159	2180.813951311962	54.95584251431249	966.7331652492503	2168.166892198527	81.76480291325112	1015.408488616525	2217.632547838714	980.7618365382045	886.5924051109224	2374.589980665924	34.9499799074258	1009.937438546568	2316.080390101421	39.52628231013495	913.222211393777	2154.840916418062	949.2670604998555	1018.182050396893	2240.957373638206	169.4637457831618	934.5649204843247	2209.286610899452	182.6019541409006	976.0587822900956	2251.192438492138	247.3112113325676	915.8503306781793	2222.900428797333	261.4351048977667	959.5938293980971	2293.464850187081	571.9599603723437	884.0892643073014	2254.341838591961	554.3557128548549	943.8282078082249	2240.953845941037	669.127468761112	880.0354614655398	2205.948120295795	653.8274341749367	938.1378265807916	2336.19173229866	900.0684253086808	1140.499016142661	1900.854676124884	404.0631322712391	1132.819241678495	1885.133136131801	580.8905043166912	1086.834104199803	1893.468926650005	551.0726862125484	1141.063332893553	1927.986376254353	558.4115944055021	1092.553337589848	2300.642589443117	963.2303042494514	1189.002238486957	1848.800180670063	371.377611911192	1087.056761039279	1839.210071833145	423.0519100133954	1185.924853445657	2167.874862443074	937.419985082127	1092.545969555094	2013.18842466298	522.6653718455152	1148.700433109055	2015.774252182778	533.7043813177081	1098.223439872229	2098.483990982949	520.6347608985706	1150.181554827371	2097.212210084412	534.0230505446098	1098.666180010873	2304.606740719428	504.9337498300296	1181.052343754144	2254.092148946102	501.8928021855511	1134.633410910503	2271.13740608135	609.0568546677627	1193.244222384938	2219.144106646153	596.7144879078875	1150.874321903318	
1691	11.26666666666667	2302.192952509801	938.1368913983285	909.2544811190717	2123.34043090529	34.73890902245002	1011.943309235547	2150.386527259201	56.01847440240753	966.4674733186044	2137.805791171431	82.72792129673873	1015.200493448502	2216.561991886077	978.1420543768365	886.0951139569404	2343.870613634058	35.53442690445795	1008.764281084688	2285.197643744058	39.980357814242	912.4402626964122	2153.702817191427	948.4616188794959	1017.825237785286	2215.261267073854	169.738230627458	934.1825197778471	2183.528505465352	184.3877982757497	975.1676095187991	2228.89672884525	247.1124812821406	915.2639189953655	2200.900845073648	262.6234046570343	958.7367260507997	2284.047171177998	569.326560541872	883.3327399301045	2244.320647225495	552.9749975674727	943.004621619306	2234.538735434773	668.0193624311813	879.3436569970708	2198.945739818006	653.8428969004897	937.4122130360187	2333.868689417894	898.6785408932997	1140.8833059662	1923.113696660117	395.6612188321696	1131.997078680228	1900.398867978471	572.8099148798254	1091.138017897964	1909.992679630132	541.7003689353207	1144.288545710546	1944.224895164299	551.8182201241995	1096.414925370818	2296.394327885023	961.3823098616366	1189.411143643943	1872.707668169869	362.3673034397054	1084.885299399875	1860.836958957374	410.5265453465414	1185.3931971233	2165.722630605437	936.2697425243784	1092.173148381155	2031.666024337787	516.9382253445104	1151.079444293332	2034.069533384984	529.1785249949697	1100.967813623672	2116.927354222763	516.9551333196309	1153.052435376307	2115.385293782907	531.2237702541403	1101.84831667357	2321.812299118027	507.1279845486811	1182.634563363532	2271.16042380203	501.4008399931263	1137.453223395078	2282.316550185842	609.0438345771382	1195.114590622943	2230.065666673987	593.1614997282178	1154.148523382786	
